name C:\Users\u0101727\Documents\MyRepositories\paper-ad\predictivesimulations_2d/Results/PredSim_2D/IK_c32.mot
datacolumns 11
datarows 17
range 0.63763097 0.79220818
endheader
time	pelvis_tilt	pelvis_tx	pelvis_ty	hip_flexion_l	hip_flexion_r	knee_angle_l	knee_angle_r	ankle_angle_l	ankle_angle_r	lumbar_extension	
          0.63763097	        -15.91905872	          0.86158008	          0.89871749	         26.53106962	         13.02805665	         -9.85506805	        -41.36514785	          7.50865725	          0.46284029	         11.22240208	
          0.64729205	        -15.93681993	          0.87358068	          0.90021856	         25.60417084	         14.36185556	         -9.59289105	        -42.24943741	          7.61443493	          1.39834414	         11.18098970	
          0.65695312	        -15.95264712	          0.88551610	          0.90146893	         24.66427814	         15.72434682	         -9.30765622	        -43.02079285	          7.77004676	          2.40875377	         11.13457422	
          0.66661420	        -15.96664209	          0.89739475	          0.90247375	         23.71593489	         17.10829214	         -9.00846124	        -43.67476669	          7.97061568	          3.47665219	         11.08364373	
          0.67627528	        -15.97906704	          0.90922309	          0.90324628	         22.76327085	         18.50749967	         -8.70224903	        -44.20303954	          8.21063659	          4.58461687	         11.02861968	
          0.68593635	        -15.99023216	          0.92100868	          0.90380422	         21.80973053	         19.91451661	         -8.39570872	        -44.59787863	          8.48285971	          5.71507238	         10.97011936	
          0.69559743	        -16.00039133	          0.93275836	          0.90416753	         20.85952259	         21.32276441	         -8.09432053	        -44.85085243	          8.77932902	          6.85046455	         10.90866934	
          0.70525850	        -16.00936689	          0.94448689	          0.90435474	         19.91832294	         22.71782441	         -7.81503166	        -44.95868912	          9.09016648	          7.97289684	         10.84553546	
          0.71491958	        -16.01668727	          0.95619633	          0.90438670	         18.99066209	         24.10395274	         -7.56713610	        -44.90742716	          9.40705844	          9.06571336	         10.78023629	
          0.72458065	        -16.02225904	          0.96789012	          0.90428044	         18.07616797	         25.48612854	         -7.34357545	        -44.68247644	          9.72373300	         10.11271003	         10.71278542	
          0.73424173	        -16.02617919	          0.97958732	          0.90404371	         17.17399721	         26.84899433	         -7.14588816	        -44.29104637	         10.03183807	         11.09726050	         10.64515331	
          0.74390280	        -16.02869448	          0.99129961	          0.90368521	         16.28618075	         28.18209510	         -6.97768746	        -43.73559549	         10.32313154	         12.00471053	         10.57830626	
          0.75356388	        -16.03008867	          1.00303849	          0.90321273	         15.41393556	         29.47531151	         -6.84168807	        -43.02238789	         10.59080423	         12.82280902	         10.51319304	
          0.76322495	        -16.03060540	          1.01481325	          0.90263431	         14.55796741	         30.72128571	         -6.73928653	        -42.15943781	         10.82975890	         13.54291798	         10.45045687	
          0.77288603	        -16.03062036	          1.02663161	          0.90195862	         13.71869949	         31.91355120	         -6.67076409	        -41.15141588	         11.03661014	         14.16080133	         10.39066662	
          0.78254710	        -16.03049887	          1.03849974	          0.90119413	         12.89618342	         33.04758038	         -6.63603096	        -40.00564210	         11.21010061	         14.67672692	         10.33419448	
          0.79220818	        -16.03062618	          1.05042239	          0.90034936	         12.09065475	         34.11991455	         -6.63565882	        -38.72687396	         11.35100169	         15.09497600	         10.28126088	
